<svg xmlns="http://www.w3.org/2000/svg" viewBox="0 0 24 24" width="24" height="24">
  <circle cx="12" cy="12" r="12" fill="BG_COLOR" opacity="0.45" />
  
  <g transform="translate(3, 3) scale(0.75)">
    <path fill="ICON_COLOR" opacity="0.25" d="M12 1L3 5v6c0 5.55 3.84 10.74 9 12 5.16-1.26 9-6.45 9-12V5l-9-4zm0 6c2.76 0 5 2.24 5 5s-2.24 5-5 5-5-2.24-5-5 2.24-5 5-5zm-3.5 5c0-1.93 1.57-3.5 3.5-3.5v1.5c-1.1 0-2 .9-2 2h-1.5z"/>
    
    <g clip-path="url(#clip)">
      <path fill="ICON_COLOR" d="M12 1L3 5v6c0 5.55 3.84 10.74 9 12 5.16-1.26 9-6.45 9-12V5l-9-4zm0 6c2.76 0 5 2.24 5 5s-2.24 5-5 5-5-2.24-5-5 2.24-5 5-5zm-3.5 5c0-1.93 1.57-3.5 3.5-3.5v1.5c-1.1 0-2 .9-2 2h-1.5z"/>
    </g>
  </g>
  
  <defs>
    <clipPath id="clip"><rect x="0" y="0" width="FILL_W" height="24" /></clipPath>
  </defs>
</svg>
